<?xml version="1.0" standalone="no"?>
<svg version="1.0" xmlns="http://www.w3.org/2000/svg"
 width="626.000000pt" height="1280.000000pt" viewBox="0 0 626.000000 1280.000000"
 preserveAspectRatio="xMidYMid meet">
<metadata>
Created by potrace 1.15, written by Peter Selinger 2001-2017
</metadata>
<g transform="translate(0.000000,1280.000000) scale(0.100000,-0.100000)"
fill="#000000" stroke="none">
<path d="M893 12675 c-411 -75 -731 -386 -814 -792 -19 -89 -19 -236 -17
-5515 l3 -5423 23 -80 c27 -99 99 -249 156 -329 24 -34 81 -97 127 -141 167
-160 356 -249 587 -275 68 -8 734 -10 2242 -8 l2145 3 100 28 c380 104 653
385 741 762 18 78 19 244 19 5500 l0 5420 -23 89 c-46 183 -127 330 -256 464
-132 137 -286 228 -476 281 l-95 26 -2195 2 c-1770 1 -2209 -1 -2267 -12z"/>
</g>
</svg>
